<svg width="72" height="72" viewBox="0 0 72 72" fill="none" xmlns="http://www.w3.org/2000/svg">
<path d="M18 0C15.525 0 13.5 2.025 13.5 4.5V67.5C13.5 69.975 15.525 72 18 72H63C65.475 72 67.5 69.975 67.5 67.5V18L49.5 0H18Z" fill="#E2E5E7"/>
<path d="M54 18H67.5L49.5 0V13.5C49.5 15.975 51.525 18 54 18Z" fill="#B0B7BD"/>
<path d="M67.5 31.5L54 18H67.5V31.5Z" fill="#CAD1D8"/>
<path d="M58.5 58.5C58.5 59.7375 57.4875 60.75 56.25 60.75H6.75C5.5125 60.75 4.5 59.7375 4.5 58.5V36C4.5 34.7625 5.5125 33.75 6.75 33.75H56.25C57.4875 33.75 58.5 34.7625 58.5 36V58.5Z" fill="#F15642"/>
<path d="M14.3079 42.6326C14.3079 42.0386 14.7759 41.3906 15.5296 41.3906H19.6854C22.0254 41.3906 24.1314 42.9566 24.1314 45.9581C24.1314 48.8021 22.0254 50.3861 19.6854 50.3861H16.6816V52.7621C16.6816 53.5541 16.1776 54.0019 15.5296 54.0019C14.9356 54.0019 14.3079 53.5541 14.3079 52.7621V42.6326ZM16.6816 43.6564V48.1384H19.6854C20.8914 48.1384 21.8454 47.0741 21.8454 45.9581C21.8454 44.7004 20.8914 43.6564 19.6854 43.6564H16.6816Z" fill="white"/>
<path d="M27.6548 54C27.0608 54 26.4128 53.676 26.4128 52.8863V42.6668C26.4128 42.021 27.0608 41.5508 27.6548 41.5508H31.7746C39.9961 41.5508 39.8161 54 31.9366 54H27.6548ZM28.7888 43.7468V51.8063H31.7746C36.6323 51.8063 36.8483 43.7468 31.7746 43.7468H28.7888Z" fill="white"/>
<path d="M42.7322 43.893V46.7528H47.3199C47.9679 46.7528 48.6159 47.4008 48.6159 48.0285C48.6159 48.6225 47.9679 49.1085 47.3199 49.1085H42.7322V52.8863C42.7322 53.5163 42.2844 54 41.6544 54C40.8624 54 40.3787 53.5163 40.3787 52.8863V42.6668C40.3787 42.021 40.8647 41.5508 41.6544 41.5508H47.9702C48.7622 41.5508 49.2302 42.021 49.2302 42.6668C49.2302 43.2428 48.7622 43.8908 47.9702 43.8908H42.7322V43.893Z" fill="white"/>
<path d="M56.25 60.75H13.5V63H56.25C57.4875 63 58.5 61.9875 58.5 60.75V58.5C58.5 59.7375 57.4875 60.75 56.25 60.75Z" fill="#CAD1D8"/>
</svg>
