<?xml version="1.0" standalone="no"?>
<!DOCTYPE svg PUBLIC "-//W3C//DTD SVG 20010904//EN"
 "http://www.w3.org/TR/2001/REC-SVG-20010904/DTD/svg10.dtd">
<svg version="1.0" xmlns="http://www.w3.org/2000/svg"
 width="840.000000pt" height="840.000000pt" viewBox="0 0 840.000000 840.000000"
 preserveAspectRatio="xMidYMid meet">
<metadata>
Created by potrace 1.14, written by Peter Selinger 2001-2017
</metadata>
<g transform="translate(0.000000,840.000000) scale(0.100000,-0.100000)"
fill="#000000" stroke="none">
<path d="M0 7484 c0 -96 0 -97 43 -168 37 -61 107 -199 107 -211 0 -2 5 -16
12 -32 6 -15 12 -32 14 -38 1 -5 9 -30 17 -55 26 -80 47 -173 61 -275 3 -22 8
-56 11 -75 6 -44 15 -150 21 -260 6 -114 6 -4250 0 -4365 -11 -191 -18 -257
-37 -370 -6 -33 -12 -71 -14 -85 -2 -14 -4 -26 -6 -27 -1 -2 -2 -6 -3 -10 -13
-49 -29 -104 -38 -128 -29 -81 -54 -141 -61 -146 -5 -3 -8 -9 -7 -13 1 -7 -31
-76 -53 -110 -70 -112 -67 -105 -67 -207 l0 -97 571 1 c614 0 659 3 809 53
171 57 309 145 430 271 161 168 258 370 286 593 6 43 12 3172 6 3183 -2 4 -29
-15 -60 -41 -104 -90 -223 -159 -337 -197 -52 -18 -255 -33 -255 -20 0 5 12
33 26 63 26 54 63 102 118 151 16 14 34 31 40 36 64 61 301 176 364 178 6 0
12 2 12 4 0 4 -46 23 -70 28 -38 9 -113 44 -195 90 -107 60 -217 166 -264 254
l-32 61 22 8 c30 11 158 3 209 -13 3 -1 19 -5 35 -10 92 -26 260 -126 349
-208 22 -20 41 -36 42 -34 2 1 -2 23 -8 47 -5 25 -12 61 -16 80 -8 54 -7 280
2 325 18 91 73 214 109 243 33 28 116 -150 133 -284 14 -107 6 -269 -15 -341
-5 -18 -8 -33 -5 -33 3 0 0 -9 -6 -20 -17 -32 1 -23 52 25 49 46 155 121 185
132 10 3 25 12 33 18 19 16 155 62 206 71 47 8 163 8 171 0 4 -3 1 -18 -6 -33
-7 -16 -12 -29 -12 -31 1 -1 -17 -27 -40 -58 -94 -127 -227 -219 -414 -284
-61 -22 -75 -30 -60 -35 11 -4 34 -12 50 -18 17 -6 36 -12 42 -13 21 -3 172
-82 220 -115 42 -29 163 -143 163 -153 0 -3 14 -27 30 -53 48 -75 43 -83 -42
-83 -73 0 -166 17 -223 41 -17 7 -32 13 -35 14 -7 2 -112 58 -131 70 -41 26
-76 52 -104 77 -16 14 -41 36 -55 48 l-25 22 -3 -109 c-5 -194 4 -2357 10
-2378 3 -11 9 -42 12 -70 4 -27 11 -66 16 -85 5 -19 11 -46 14 -60 20 -103 97
-304 163 -430 113 -213 246 -382 427 -545 206 -185 518 -349 791 -416 73 -17
116 -19 482 -18 226 0 414 4 430 10 15 5 82 27 149 49 138 45 260 100 383 173
47 29 91 55 96 59 181 139 366 314 431 410 16 24 34 48 40 53 19 17 78 116
141 233 76 141 146 346 178 517 10 50 20 99 23 110 3 11 8 483 9 1050 2 566 5
1031 7 1032 6 6 178 5 184 -1 3 -3 6 -628 7 -1389 1 -992 5 -1397 13 -1435 22
-99 44 -177 54 -189 6 -7 8 -13 4 -13 -3 0 14 -38 38 -85 158 -304 407 -492
747 -563 76 -16 148 -18 667 -19 l582 -1 0 94 c0 87 -12 144 -32 144 -4 0 -8
9 -8 19 0 11 -4 21 -9 23 -8 3 -69 118 -104 198 -29 66 -74 210 -82 265 -2 11
-8 47 -14 80 -16 96 -29 222 -37 365 -6 114 -5 4299 1 4385 9 132 23 284 29
315 8 42 16 83 22 120 19 107 71 265 127 380 23 47 44 87 47 90 3 3 18 26 33
52 24 42 27 56 27 143 l0 96 -1202 -4 c-662 -2 -1219 -7 -1238 -10 -112 -19
-124 -22 -175 -32 -13 -3 -37 -10 -52 -16 -16 -6 -29 -10 -31 -9 -5 3 -67 -12
-77 -19 -5 -3 -13 -6 -17 -7 -5 -1 -10 -3 -13 -4 -3 -1 -8 -3 -12 -4 -118 -26
-396 -177 -553 -299 -101 -79 -290 -262 -290 -281 0 -3 -16 -22 -35 -43 -19
-21 -38 -46 -41 -55 -3 -10 -10 -18 -15 -18 -5 0 -9 -7 -9 -15 0 -8 -4 -15
-10 -15 -5 0 -10 -6 -10 -14 0 -8 -3 -16 -8 -18 -8 -3 -92 -143 -92 -153 0 -4
-9 -19 -19 -33 -10 -15 -20 -31 -21 -37 -3 -12 -10 -29 -49 -122 -16 -40 -28
-73 -26 -73 2 0 -3 -16 -11 -35 -18 -44 -61 -222 -70 -290 -3 -27 -9 -59 -12
-70 -3 -11 -7 -747 -8 -1635 -2 -888 -3 -1624 -4 -1636 0 -20 -6 -21 -98 -22
l-99 -2 0 1563 c0 1433 -3 1705 -18 1777 -3 14 -8 39 -10 55 -3 17 -7 41 -10
55 -3 14 -8 36 -11 50 -8 40 -44 161 -65 220 -244 669 -841 1145 -1553 1237
-28 4 -588 8 -1243 10 l-1193 4 0 -97z m6278 -1644 c166 -281 276 -543 299
-714 9 -63 9 -171 1 -211 -19 -93 -81 -182 -171 -247 l-29 -21 8 39 c16 88 -1
264 -28 280 -4 3 -8 16 -8 30 0 13 -4 24 -9 24 -5 0 -12 11 -15 25 -4 14 -11
25 -16 25 -6 0 -10 5 -10 11 0 7 -17 32 -37 57 -21 25 -43 53 -50 61 -10 14
-15 12 -40 -14 -72 -76 -121 -160 -148 -255 -18 -67 -25 -190 -12 -248 6 -31
6 -32 -16 -21 -12 7 -47 38 -78 69 -79 81 -104 151 -104 290 1 114 5 141 34
241 45 157 140 359 279 597 77 130 61 132 150 -18z"/>
</g>
</svg>
