<svg width="20" height="20" viewBox="0 0 20 20" xmlns="http://www.w3.org/2000/svg">
<path d="M20 10C20 4.47656 15.5234 0 10 0C4.47656 0 0 4.47656 0 10C0 15.5234 4.47656 20 10 20C10.0586 20 10.1172 20 10.1758 19.9961V12.2148H8.02734V9.71094H10.1758V7.86719C10.1758 5.73047 11.4805 4.56641 13.3867 4.56641C14.3008 4.56641 15.0859 4.63281 15.3125 4.66406V6.89844H14C12.9648 6.89844 12.7617 7.39062 12.7617 8.11328V9.70703H15.2422L14.918 12.2109H12.7617V19.6133C16.9414 18.4141 20 14.5664 20 10Z"/>
</svg>
