<svg width="20" height="20" viewBox="0 0 20 20" xmlns="http://www.w3.org/2000/svg">
<path d="M17.2727 0H2.72727C2.00396 0 1.31026 0.287337 0.7988 0.7988C0.287337 1.31026 0 2.00396 0 2.72727L0 17.2727C0 17.996 0.287337 18.6897 0.7988 19.2012C1.31026 19.7127 2.00396 20 2.72727 20H17.2727C17.996 20 18.6897 19.7127 19.2012 19.2012C19.7127 18.6897 20 17.996 20 17.2727V2.72727C20 2.00396 19.7127 1.31026 19.2012 0.7988C18.6897 0.287337 17.996 0 17.2727 0V0ZM6.81818 15.8273C6.81833 15.8827 6.80754 15.9377 6.78642 15.989C6.7653 16.0402 6.73427 16.0868 6.6951 16.1261C6.65594 16.1654 6.60941 16.1965 6.55819 16.2178C6.50697 16.2391 6.45205 16.25 6.39659 16.25H4.6C4.54444 16.2502 4.48941 16.2393 4.43805 16.2181C4.3867 16.1969 4.34004 16.1658 4.30075 16.1265C4.26147 16.0872 4.23034 16.0406 4.20915 15.9892C4.18795 15.9379 4.17712 15.8828 4.17727 15.8273V8.29545C4.17727 8.18334 4.22181 8.07582 4.30109 7.99654C4.38036 7.91726 4.48789 7.87273 4.6 7.87273H6.39659C6.50851 7.87303 6.61574 7.9177 6.69477 7.99694C6.7738 8.07619 6.81818 8.18354 6.81818 8.29545V15.8273ZM5.49773 7.15909C5.1606 7.15909 4.83104 7.05912 4.55073 6.87182C4.27042 6.68453 4.05195 6.41831 3.92293 6.10685C3.79392 5.79538 3.76016 5.45265 3.82593 5.12201C3.8917 4.79136 4.05405 4.48763 4.29243 4.24925C4.53082 4.01086 4.83454 3.84852 5.16519 3.78275C5.49584 3.71698 5.83856 3.75074 6.15003 3.87975C6.46149 4.00876 6.72771 4.22724 6.91501 4.50755C7.1023 4.78786 7.20227 5.11742 7.20227 5.45455C7.20227 5.90662 7.02269 6.34018 6.70302 6.65984C6.38336 6.97951 5.9498 7.15909 5.49773 7.15909ZM16.2091 15.8568C16.2092 15.9079 16.1993 15.9585 16.1798 16.0057C16.1603 16.0529 16.1317 16.0958 16.0956 16.132C16.0595 16.1681 16.0166 16.1967 15.9694 16.2162C15.9221 16.2357 15.8715 16.2456 15.8205 16.2455H13.8886C13.8376 16.2456 13.787 16.2357 13.7397 16.2162C13.6925 16.1967 13.6496 16.1681 13.6135 16.132C13.5774 16.0958 13.5488 16.0529 13.5293 16.0057C13.5098 15.9585 13.4999 15.9079 13.5 15.8568V12.3284C13.5 11.8011 13.6545 10.0193 12.1216 10.0193C10.9341 10.0193 10.692 11.2386 10.6443 11.7864V15.8614C10.6443 15.9635 10.6042 16.0615 10.5325 16.1342C10.4608 16.2069 10.3634 16.2485 10.2614 16.25H8.39545C8.34447 16.25 8.29399 16.2399 8.2469 16.2204C8.19981 16.2008 8.15705 16.1722 8.12105 16.1361C8.08505 16.1 8.05653 16.0571 8.03712 16.01C8.01772 15.9629 8.00781 15.9123 8.00795 15.8614V8.2625C8.00781 8.21152 8.01772 8.16101 8.03712 8.11386C8.05653 8.06672 8.08505 8.02386 8.12105 7.98776C8.15705 7.95166 8.19981 7.92301 8.2469 7.90347C8.29399 7.88392 8.34447 7.87386 8.39545 7.87386H10.2614C10.3644 7.87386 10.4633 7.91481 10.5362 7.98769C10.6091 8.06058 10.65 8.15943 10.65 8.2625V8.91932C11.0909 8.25682 11.7443 7.74773 13.1386 7.74773C16.2273 7.74773 16.2068 10.6318 16.2068 12.2159L16.2091 15.8568Z"/>
</svg>
