<svg width="40" height="52" viewBox="0 0 40 52" fill="none" xmlns="http://www.w3.org/2000/svg">
<path d="M40 20C40 31.0457 20 52 20 52C20 52 0 31.0457 0 20C0 8.9543 8.9543 0 20 0C31.0457 0 40 8.9543 40 20Z" fill="white"/>
<path d="M25.6911 16.7901C25.8176 16.48 25.7937 15.8599 25.2301 15.2907C25.0229 15.4721 24.8694 15.7084 24.7867 15.9731C24.7041 16.2379 24.6955 16.5207 24.762 16.7901C24.5931 16.7026 24.4512 16.5694 24.3522 16.4052C24.2531 16.2411 24.2008 16.0524 24.2008 15.8599C24.2008 15.2907 24.4396 14.564 25.2206 13.2705C26.023 14.5713 26.2523 15.298 26.2523 15.8599C26.2523 16.0524 26.2 16.2411 26.1009 16.4052C26.0019 16.5694 25.86 16.7026 25.6911 16.7901ZM31 9.52325V9.00004H25.2397C24.5851 8.99748 23.9364 9.12625 23.331 9.37894C22.7256 9.63164 22.1755 10.0033 21.7123 10.4724C21.249 10.9416 20.8819 11.499 20.6319 12.1127C20.3819 12.7263 20.254 13.3841 20.2555 14.0481V22.2014H19.7469V14.0481C19.7481 13.3846 19.6202 12.7274 19.3703 12.1142C19.1205 11.501 18.7538 10.9439 18.2911 10.4749C17.8284 10.0058 17.279 9.63409 16.6743 9.381C16.0696 9.12791 15.4216 8.99844 14.7675 9.00004H9V9.5184C9.61138 10.4534 9.76661 11.3545 9.76661 13.1421V22.8482C9.76661 24.7642 9.61138 25.5127 9 26.4816V27H11.756C12.1191 27.0016 12.479 26.9301 12.8147 26.7896C13.1504 26.649 13.4553 26.4423 13.7117 26.1814C13.968 25.9205 14.1708 25.6106 14.3081 25.2696C14.4455 24.9286 14.5148 24.5633 14.5119 24.195V16.0489C13.8528 16.7029 13.2175 16.8555 12.7901 16.7755C12.931 16.3565 13.3823 15.872 14.2779 15.6201C13.3871 15.3658 12.9405 14.8934 12.7996 14.4647C13.2295 14.3799 13.8671 14.5325 14.531 15.1914C14.2922 14.2588 14.4761 13.6121 14.7699 13.2729C15.0612 13.6121 15.2475 14.2588 15.0087 15.1914C15.6726 14.5277 16.3102 14.3751 16.7401 14.4647C16.5992 14.8837 16.1526 15.3658 15.2618 15.6201C16.1598 15.8623 16.6088 16.3468 16.7497 16.7755C16.3222 16.8627 15.6869 16.7101 15.0278 16.0489V21.9423C15.0278 23.2811 15.5521 24.5651 16.4855 25.5118C17.4189 26.4584 18.6848 26.9903 20.0048 26.9903C21.3248 26.9903 22.5907 26.4584 23.524 25.5118C24.4574 24.5651 24.9818 23.2811 24.9818 21.9423V17.1534H25.4785V24.195C25.4769 24.5631 25.5474 24.9279 25.6857 25.2683C25.8241 25.6086 26.0277 25.9177 26.2847 26.1777C26.5417 26.4377 26.847 26.6434 27.1829 26.7829C27.5188 26.9224 27.8787 26.9928 28.2416 26.9903H31V26.4719C30.3862 25.5151 30.2334 24.7763 30.2334 22.8385V13.1421C30.2334 11.3545 30.3862 10.4486 31 9.50872" fill="#446650"/>
</svg>
