<svg viewBox="0 0 143 32" fill="none" xmlns="http://www.w3.org/2000/svg">
<g clip-path="url(#clip0_5925_15543)">
<path d="M55.4603 23.4303L51.212 11.6334H51.0828V20.0438C51.0828 21.6078 51.2121 22.5729 51.7248 23.3226V23.4303H48.2563V23.3226C48.7734 22.5944 48.8983 21.5992 48.8983 20.0438V11.698C48.8983 10.3494 48.8165 9.38427 48.2563 8.63457V8.52686H53.1035L57.1148 19.7292H57.2225L61.1865 8.52686H65.7794V8.61734C65.2624 9.38858 65.1331 10.2244 65.1331 11.7023V20.1472C65.1331 21.737 65.2624 22.5298 65.7794 23.3226V23.4303H61.5527V23.3226C62.0913 22.5298 62.1947 21.7155 62.1947 20.1472V11.8057H62.0913L57.9722 23.4389L55.4603 23.4303Z" fill="white"/>
<path d="M73.216 19.389V18.8418L72.0398 19.2252C70.9454 19.5915 70.3422 19.9577 70.3422 20.6859C70.332 20.8267 70.3512 20.9682 70.3985 21.1012C70.4458 21.2343 70.5202 21.3561 70.617 21.4589C70.7138 21.5618 70.8308 21.6434 70.9608 21.6987C71.0907 21.7541 71.2307 21.7818 71.3719 21.7803C72.1906 21.7803 73.216 21.0693 73.216 19.376V19.389ZM77.3997 23.0858C76.8127 23.4918 76.1141 23.7055 75.4005 23.6976C74.1337 23.6976 73.2763 22.9048 73.2117 21.9397H73.1083C72.8617 22.4766 72.4646 22.9305 71.9652 23.2463C71.4659 23.5622 70.8856 23.7264 70.2948 23.7191C69.9349 23.7364 69.5753 23.6793 69.2385 23.5513C68.9017 23.4234 68.5949 23.2273 68.3373 22.9753C68.0797 22.7234 67.8768 22.4211 67.7414 22.0872C67.606 21.7533 67.5409 21.395 67.5502 21.0349C67.5502 19.1735 69.2736 18.4497 71.4279 17.9068L73.2289 17.4544V16.8469C73.2289 15.4725 72.0742 14.9597 71.0229 14.9597C70.0081 14.9958 69.0222 15.3071 68.1706 15.8602L67.869 14.4427C68.9837 13.5395 70.3606 13.021 71.7942 12.9648C73.7244 12.9648 75.9735 13.7792 75.9735 16.9977V21.177C75.9735 21.7587 76.1674 21.9957 76.5983 21.9957C76.8137 21.9916 77.0255 21.9402 77.2187 21.8449L77.3997 23.0858Z" fill="white"/>
<path d="M79.0758 16.0541C79.0758 14.8951 78.9896 14.21 78.5415 13.6499V13.5207L81.7988 13.2018H81.885V15.9421H81.9927C82.4623 14.1196 83.3844 12.9605 84.9527 12.9605C85.2041 12.9588 85.4551 12.9804 85.7024 13.0252V15.899C85.363 15.7898 85.0075 15.7389 84.6511 15.7482C83.3241 15.7482 81.885 16.6099 81.885 19.264V20.9875C81.885 22.1637 81.9712 22.7109 82.4236 23.3227V23.4305H78.6492V23.3227C78.9681 22.7238 79.0801 22.1853 79.0801 20.9875L79.0758 16.0541Z" fill="white"/>
<path d="M87.2062 9.96172C87.2062 9.62086 87.3073 9.28765 87.4966 9.00423C87.686 8.72081 87.9552 8.49991 88.2701 8.36947C88.585 8.23903 88.9315 8.2049 89.2659 8.2714C89.6002 8.3379 89.9073 8.50204 90.1483 8.74307C90.3893 8.98409 90.5535 9.29118 90.62 9.6255C90.6865 9.95981 90.6523 10.3063 90.5219 10.6213C90.3914 10.9362 90.1706 11.2053 89.8871 11.3947C89.6037 11.5841 89.2705 11.6852 88.9296 11.6852C88.4725 11.6852 88.0342 11.5036 87.711 11.1804C87.3878 10.8572 87.2062 10.4188 87.2062 9.96172ZM90.2739 20.9444C90.2739 22.2068 90.3386 22.7238 90.7048 23.3227V23.4304H87.0338V23.3227C87.3785 22.7238 87.4862 22.2068 87.4862 20.9444V15.9033C87.4862 14.8089 87.3139 14.21 86.9304 13.6499V13.5206L90.2093 13.2018H90.2739V20.9444Z" fill="white"/>
<path d="M97.8311 19.389V18.8418L96.6505 19.2252C95.5605 19.5915 94.9573 19.9577 94.9573 20.6859C94.9471 20.8267 94.9663 20.9682 95.0136 21.1012C95.0609 21.2343 95.1353 21.3561 95.2321 21.4589C95.3289 21.5618 95.4459 21.6434 95.5759 21.6987C95.7058 21.7541 95.8458 21.7818 95.987 21.7803C96.8013 21.7803 97.8311 21.0693 97.8311 19.376V19.389ZM102.015 23.0858C101.429 23.4909 100.732 23.7046 100.02 23.6976C98.7531 23.6976 97.8957 22.9048 97.8311 21.9397H97.7234C97.4779 22.4766 97.0817 22.9306 96.583 23.2465C96.0843 23.5625 95.5045 23.7266 94.9142 23.7191C94.5543 23.7364 94.1947 23.6793 93.8579 23.5513C93.5211 23.4234 93.2143 23.2273 92.9567 22.9753C92.6991 22.7234 92.4962 22.4211 92.3608 22.0872C92.2254 21.7533 92.1603 21.395 92.1696 21.0349C92.1696 19.1735 93.893 18.4497 96.0473 17.9068L97.8483 17.4544V16.8469C97.8483 15.4725 96.6893 14.9597 95.6423 14.9597C94.6275 14.9958 93.6416 15.3071 92.79 15.8602L92.4884 14.4427C93.6031 13.5395 94.98 13.021 96.4136 12.9648C98.3438 12.9648 100.593 13.7792 100.593 16.9977V21.177C100.593 21.7587 100.787 21.9957 101.218 21.9957C101.433 21.9912 101.645 21.9398 101.838 21.8449L102.015 23.0858Z" fill="white"/>
<path d="M103.699 16.0324C103.699 14.8518 103.553 14.2098 103.144 13.6497V13.5205L106.444 13.2016H106.509V14.701H106.616C106.887 14.1792 107.297 13.7423 107.8 13.4383C108.303 13.1342 108.881 12.9748 109.469 12.9776C111.399 12.9776 112.773 14.3951 112.773 16.9673V21.0605C112.712 21.8436 112.861 22.6288 113.204 23.3355V23.4432H109.538V23.3355C109.904 22.7581 109.968 22.2195 109.968 21.0605V17.0621C109.968 15.6661 109.387 14.9595 108.443 14.9595C107.5 14.9595 106.513 15.7308 106.513 17.5447V21.0605C106.513 22.2195 106.578 22.7581 106.944 23.3355V23.4432H103.256V23.3355C103.6 22.7581 103.686 22.2195 103.686 21.0605L103.699 16.0324Z" fill="white"/>
<path d="M115.208 19.785V15.8168C115.208 14.5242 115.057 13.9512 114.734 13.3738V13.2661H118.017V20.0005C118.017 21.2413 118.594 21.7239 119.366 21.7239C120.288 21.7239 121.253 20.8234 121.253 18.9362V15.8168C121.253 14.5716 121.124 13.9727 120.783 13.3738V13.2661H124.062V20.7502C124.007 21.5288 124.165 22.3077 124.519 23.0036V23.1285L121.343 23.4732H121.279V21.9307H121.149C120.901 22.4674 120.505 22.922 120.008 23.2411C119.51 23.5602 118.931 23.7304 118.34 23.7317C116.582 23.7317 115.212 22.3788 115.212 19.785" fill="white"/>
<path d="M126.845 16.0756C126.845 14.8735 126.716 14.2315 126.29 13.6498V13.5206L129.568 13.2017H129.633V14.6796H129.762C130.023 14.1497 130.431 13.7057 130.936 13.4003C131.442 13.0948 132.024 12.9407 132.615 12.9561C133.214 12.9532 133.798 13.1407 134.284 13.4915C134.769 13.8423 135.131 14.3383 135.316 14.9079H135.445C135.707 14.321 136.135 13.8235 136.677 13.4767C137.218 13.13 137.849 12.949 138.492 12.9561C140.357 12.9561 141.706 14.3909 141.706 16.7951V20.9572C141.706 22.1765 141.813 22.7151 142.158 23.314V23.4217H138.47V23.314C138.853 22.7151 138.901 22.1765 138.901 20.9572V16.9545C138.901 15.5801 138.367 14.9596 137.509 14.9596C136.458 14.9596 135.665 15.8214 135.665 17.4026V20.9658C135.665 22.1852 135.708 22.7237 136.096 23.3226V23.4304H132.408V23.3226C132.752 22.7237 132.86 22.1852 132.86 20.9658V16.9114C132.86 15.6662 132.386 14.9596 131.507 14.9596C130.564 14.9596 129.599 15.8817 129.599 17.4672V20.9658C129.599 22.1852 129.685 22.7237 130.051 23.3226V23.4304H126.363V23.3226C126.725 22.7237 126.794 22.1852 126.794 20.9658L126.845 16.0756Z" fill="white"/>
<path d="M30.1128 13.8565C30.3412 13.305 30.2981 12.202 29.2813 11.1895C28.9073 11.5123 28.6304 11.9325 28.4813 12.4034C28.3322 12.8743 28.3168 13.3774 28.4368 13.8565C28.1319 13.7009 27.876 13.464 27.6973 13.172C27.5187 12.88 27.4242 12.5443 27.4243 12.202C27.4243 11.1895 27.8551 9.89693 29.264 7.59613C30.7117 9.90985 31.1254 11.2024 31.1254 12.202C31.1255 12.5443 31.031 12.88 30.8523 13.172C30.6736 13.464 30.4177 13.7009 30.1128 13.8565ZM39.6909 0.930725V6.64246e-05H29.2985C28.1175 -0.00448169 26.9472 0.224571 25.855 0.674044C24.7628 1.12352 23.7703 1.78454 22.9346 2.61906C22.0989 3.45359 21.4364 4.44515 20.9854 5.53667C20.5343 6.6282 20.3036 7.79815 20.3065 8.9792V23.482H19.3887V8.9792C19.391 7.79904 19.1601 6.63005 18.7094 5.53935C18.2587 4.44864 17.597 3.4577 16.7623 2.6234C15.9276 1.7891 14.9364 1.12788 13.8455 0.677695C12.7545 0.22751 11.5854 -0.00277269 10.4053 6.64246e-05H0V0.922108C1.103 2.58523 1.38306 4.18803 1.38306 7.36778V24.6324C1.38306 28.0405 1.103 29.3718 0 31.0953V32.0173H4.97213C5.62734 32.0202 6.27659 31.8929 6.88226 31.643C7.48793 31.3931 8.03797 31.0254 8.50047 30.5613C8.96297 30.0972 9.32875 29.5459 9.57658 28.9394C9.82442 28.3328 9.9494 27.6831 9.94426 27.0279V12.5381C8.75508 13.7014 7.60899 13.9729 6.83775 13.8307C7.09196 13.0853 7.90629 12.2236 9.52201 11.7755C7.91491 11.3231 7.1092 10.4829 6.85499 9.72028C7.63054 9.56947 8.78094 9.84092 9.97873 11.0129C9.54787 9.35404 9.87963 8.20365 10.4096 7.60044C10.9352 8.20365 11.2713 9.35404 10.8404 11.0129C12.0382 9.8323 13.1886 9.56086 13.9642 9.72028C13.71 10.4657 12.9043 11.3231 11.2972 11.7755C12.9172 12.2063 13.7272 13.0681 13.9814 13.8307C13.2102 13.9858 12.0641 13.7144 10.8749 12.5381V23.0209C10.8749 25.4023 11.8209 27.6862 13.5048 29.3701C15.1888 31.0541 17.4726 32.0001 19.854 32.0001C22.2355 32.0001 24.5193 31.0541 26.2033 29.3701C27.8872 27.6862 28.8332 25.4023 28.8332 23.0209V14.5028H29.7294V27.0279C29.7265 27.6828 29.8536 28.3317 30.1033 28.9371C30.3529 29.5424 30.7202 30.0923 31.1839 30.5547C31.6475 31.0172 32.1983 31.383 32.8043 31.6311C33.4104 31.8792 34.0596 32.0046 34.7144 32.0001H39.6909V31.078C38.5835 29.3761 38.3078 28.062 38.3078 24.6151V7.36778C38.3078 4.18803 38.5835 2.57661 39.6909 0.904873" fill="white"/>
</g>
<defs>
<clipPath id="clip0_5925_15543">
<rect width="142.158" height="32" fill="currentColor"/>
</clipPath>
</defs>
</svg>
