<svg viewBox="0 0 40 32" fill="none" xmlns="http://www.w3.org/2000/svg">
<path d="M30.1128 13.8565C30.3412 13.305 30.2981 12.202 29.2813 11.1895C28.9073 11.5123 28.6304 11.9325 28.4813 12.4034C28.3322 12.8743 28.3168 13.3774 28.4368 13.8565C28.1319 13.7009 27.876 13.464 27.6973 13.172C27.5187 12.88 27.4242 12.5443 27.4243 12.202C27.4243 11.1895 27.8551 9.89693 29.264 7.59613C30.7117 9.90985 31.1254 11.2024 31.1254 12.202C31.1255 12.5443 31.031 12.88 30.8523 13.172C30.6736 13.464 30.4177 13.7009 30.1128 13.8565ZM39.6909 0.930725V6.64246e-05H29.2985C28.1175 -0.00448169 26.9472 0.224571 25.855 0.674044C24.7628 1.12352 23.7703 1.78454 22.9346 2.61906C22.0989 3.45359 21.4364 4.44515 20.9854 5.53667C20.5343 6.6282 20.3036 7.79815 20.3065 8.9792V23.482H19.3887V8.9792C19.391 7.79904 19.1601 6.63005 18.7094 5.53935C18.2587 4.44864 17.597 3.4577 16.7623 2.6234C15.9276 1.7891 14.9364 1.12788 13.8455 0.677695C12.7545 0.22751 11.5854 -0.00277269 10.4053 6.64246e-05H0V0.922108C1.103 2.58523 1.38306 4.18803 1.38306 7.36778V24.6324C1.38306 28.0405 1.103 29.3718 0 31.0953V32.0173H4.97213C5.62734 32.0202 6.27659 31.8929 6.88226 31.643C7.48793 31.3931 8.03797 31.0254 8.50047 30.5613C8.96297 30.0972 9.32875 29.5459 9.57658 28.9394C9.82442 28.3328 9.9494 27.6831 9.94426 27.0279V12.5381C8.75508 13.7014 7.60899 13.9729 6.83775 13.8307C7.09196 13.0853 7.90629 12.2236 9.52201 11.7755C7.91491 11.3231 7.1092 10.4829 6.85499 9.72028C7.63054 9.56947 8.78094 9.84092 9.97873 11.0129C9.54787 9.35404 9.87963 8.20365 10.4096 7.60044C10.9352 8.20365 11.2713 9.35404 10.8404 11.0129C12.0382 9.8323 13.1886 9.56086 13.9642 9.72028C13.71 10.4657 12.9043 11.3231 11.2972 11.7755C12.9172 12.2063 13.7272 13.0681 13.9814 13.8307C13.2102 13.9858 12.0641 13.7144 10.8749 12.5381V23.0209C10.8749 25.4023 11.8209 27.6862 13.5048 29.3701C15.1888 31.0541 17.4726 32.0001 19.854 32.0001C22.2355 32.0001 24.5193 31.0541 26.2033 29.3701C27.8872 27.6862 28.8332 25.4023 28.8332 23.0209V14.5028H29.7294V27.0279C29.7265 27.6828 29.8536 28.3317 30.1033 28.9371C30.3529 29.5424 30.7202 30.0923 31.1839 30.5547C31.6475 31.0172 32.1983 31.383 32.8043 31.6311C33.4104 31.8792 34.0596 32.0046 34.7144 32.0001H39.6909V31.078C38.5835 29.3761 38.3078 28.062 38.3078 24.6151V7.36778C38.3078 4.18803 38.5835 2.57661 39.6909 0.904873" fill="currentColor"/>
</svg>
