<svg width="20" height="20" viewBox="0 0 20 20" fill="none" xmlns="http://www.w3.org/2000/svg">
<g clip-path="url(#clip0_7374_4445)">
<path d="M15.8332 6.66667H4.1665C2.78734 6.66667 1.6665 7.7875 1.6665 9.16667V14.1667H4.99984V17.5H14.9998V14.1667H18.3332V9.16667C18.3332 7.7875 17.2123 6.66667 15.8332 6.66667ZM13.3332 15.8333H6.6665V11.6667H13.3332V15.8333ZM15.8332 10C15.3707 10 14.9998 9.62917 14.9998 9.16667C14.9998 8.70417 15.3707 8.33333 15.8332 8.33333C16.2957 8.33333 16.6665 8.70417 16.6665 9.16667C16.6665 9.62917 16.2957 10 15.8332 10ZM14.9998 2.5H4.99984V5.83333H14.9998V2.5Z" fill="currentColor"/>
</g>
<defs>
<clipPath id="clip0_7374_4445">
<rect width="20" height="20"/>
</clipPath>
</defs>
</svg>
