<svg width="20" height="20" viewBox="0 0 20 20" xmlns="http://www.w3.org/2000/svg">
<path d="M12.9167 11.6667H12.2542L12.025 11.4375C12.8417 10.4917 13.3333 9.2625 13.3333 7.91667C13.3333 4.925 10.9083 2.5 7.91667 2.5C4.925 2.5 2.5 4.925 2.5 7.91667C2.5 10.9083 4.925 13.3333 7.91667 13.3333C9.2625 13.3333 10.4917 12.8417 11.4375 12.0292L11.6667 12.2583V12.9167L15.8333 17.075L17.075 15.8333L12.9167 11.6667ZM7.91667 11.6667C5.84583 11.6667 4.16667 9.9875 4.16667 7.91667C4.16667 5.84583 5.84583 4.16667 7.91667 4.16667C9.9875 4.16667 11.6667 5.84583 11.6667 7.91667C11.6667 9.9875 9.9875 11.6667 7.91667 11.6667Z"/>
</svg>
