<svg width="20" height="20" viewBox="0 0 20 20" xmlns="http://www.w3.org/2000/svg">
<path d="M14.1665 13.4057C13.5332 13.4057 12.9623 13.6516 12.529 14.0474L6.5915 10.5849C6.63734 10.3974 6.6665 10.2016 6.6665 10.0016C6.6665 9.80156 6.63734 9.60573 6.5915 9.41823L12.4665 5.98906C12.9123 6.40573 13.5082 6.66406 14.1665 6.66406C15.5457 6.66406 16.6665 5.54323 16.6665 4.16406C16.6665 2.7849 15.5457 1.66406 14.1665 1.66406C12.7873 1.66406 11.6665 2.7849 11.6665 4.16406C11.6665 4.36406 11.6957 4.5599 11.7415 4.7474L5.8665 8.17656C5.42067 7.7599 4.82484 7.50156 4.1665 7.50156C2.78734 7.50156 1.6665 8.6224 1.6665 10.0016C1.6665 11.3807 2.78734 12.5016 4.1665 12.5016C4.82484 12.5016 5.42067 12.2432 5.8665 11.8266L11.804 15.2891C11.7623 15.4641 11.7373 15.6474 11.7373 15.8349C11.7373 17.1766 12.8248 18.2641 14.1665 18.2641C15.5082 18.2641 16.5957 17.1766 16.5957 15.8349C16.5957 14.4932 15.5082 13.4057 14.1665 13.4057Z"/>
</svg>
