<svg width="20" height="20" viewBox="0 0 20 20" fill="currentColor"  xmlns="http://www.w3.org/2000/svg">
<path d="M5.83398 14.9998C4.91315 14.9998 4.17565 15.7457 4.17565 16.6665C4.17565 17.5873 4.91315 18.3332 5.83398 18.3332C6.75482 18.3332 7.50065 17.5873 7.50065 16.6665C7.50065 15.7457 6.75482 14.9998 5.83398 14.9998ZM0.833984 1.6665V3.33317H2.50065L5.49648 9.654L4.37148 11.6957C4.24232 11.9373 4.16732 12.2082 4.16732 12.4998C4.16732 13.4207 4.91315 14.1665 5.83398 14.1665H15.834V12.4998H6.18815C6.07148 12.4998 5.97982 12.4082 5.97982 12.2915C5.97982 12.254 5.98815 12.2207 6.00482 12.1915L6.75065 10.8332H12.959C13.584 10.8332 14.1298 10.4873 14.4173 9.97484L17.3965 4.5665C17.4632 4.44984 17.5007 4.31234 17.5007 4.1665C17.5007 3.704 17.1257 3.33317 16.6673 3.33317H4.34648L3.55482 1.6665H0.833984ZM14.1673 14.9998C13.2465 14.9998 12.509 15.7457 12.509 16.6665C12.509 17.5873 13.2465 18.3332 14.1673 18.3332C15.0882 18.3332 15.834 17.5873 15.834 16.6665C15.834 15.7457 15.0882 14.9998 14.1673 14.9998Z" />
</svg>
