<svg width="34" height="14" viewBox="0 0 34 14" fill="none" xmlns="http://www.w3.org/2000/svg">
  <path fill="currentColor" fill-rule="evenodd" clip-rule="evenodd" d="M1.60039 4.46667C5.98558 1.17778 12.0152 1.17778 16.4004 4.46667C21.4967 8.28889 28.5041 8.28889 33.6004 4.46667L32.4004 2.86667C28.0152 6.15556 21.9856 6.15556 17.6004 2.86667C12.5041 -0.955555 5.49669 -0.955555 0.400391 2.86667L1.60039 4.46667ZM1.60039 10.4667C5.98558 7.17778 12.0152 7.17778 16.4004 10.4667C21.4967 14.2889 28.5041 14.2889 33.6004 10.4667L32.4004 8.86667C28.0152 12.1556 21.9856 12.1556 17.6004 8.86667C12.5041 5.04444 5.49669 5.04444 0.400391 8.86667L1.60039 10.4667Z" />
</svg>
