<svg width="20" height="20" viewBox="0 0 20 20" fill="currentColor" xmlns="http://www.w3.org/2000/svg">
<path d="M15.8333 1.6665H4.16667C3.24583 1.6665 2.5 2.41234 2.5 3.33317V14.9998C2.5 15.9207 3.24583 16.6665 4.16667 16.6665H7.5L10 19.1665L12.5 16.6665H15.8333C16.7542 16.6665 17.5 15.9207 17.5 14.9998V3.33317C17.5 2.41234 16.7542 1.6665 15.8333 1.6665ZM10.8333 14.9998H9.16667V13.3332H10.8333V14.9998ZM12.5542 8.54567L11.8083 9.31234C11.2083 9.91234 10.8333 10.4165 10.8333 11.6665H9.16667V11.2498C9.16667 10.329 9.54167 9.49567 10.1417 8.8915L11.1792 7.8415C11.4792 7.5415 11.6667 7.12484 11.6667 6.6665C11.6667 5.74567 10.9208 4.99984 10 4.99984C9.07917 4.99984 8.33333 5.74567 8.33333 6.6665H6.66667C6.66667 4.82484 8.15833 3.33317 10 3.33317C11.8417 3.33317 13.3333 4.82484 13.3333 6.6665C13.3333 7.39984 13.0375 8.06234 12.5542 8.54567Z"/>
</svg>
