<svg xmlns="http://www.w3.org/2000/svg" xmlns:xlink="http://www.w3.org/1999/xlink" width="20px" height="16px" viewBox="0 0 19 16" version="1.1">
<path fill="currentColor" d="M 17.003906 4.023438 C 17.015625 4.191406 17.015625 4.363281 17.015625 4.535156 C 17.015625 9.769531 13.125 15.804688 6.007812 15.804688 L 6.007812 15.800781 C 3.90625 15.804688 1.847656 15.1875 0.078125 14.027344 C 0.382812 14.0625 0.691406 14.082031 0.996094 14.082031 C 2.738281 14.085938 4.433594 13.484375 5.800781 12.382812 C 4.148438 12.351562 2.695312 11.246094 2.1875 9.632812 C 2.769531 9.75 3.367188 9.726562 3.933594 9.566406 C 2.128906 9.191406 0.832031 7.570312 0.832031 5.683594 C 0.832031 5.664062 0.832031 5.648438 0.832031 5.632812 C 1.367188 5.941406 1.972656 6.109375 2.585938 6.128906 C 0.886719 4.964844 0.363281 2.648438 1.390625 0.839844 C 3.355469 3.316406 6.253906 4.820312 9.363281 4.976562 C 9.050781 3.601562 9.476562 2.160156 10.484375 1.195312 C 12.042969 -0.304688 14.492188 -0.230469 15.957031 1.367188 C 16.824219 1.191406 17.652344 0.863281 18.414062 0.402344 C 18.125 1.320312 17.519531 2.097656 16.714844 2.59375 C 17.480469 2.503906 18.230469 2.292969 18.933594 1.972656 C 18.414062 2.769531 17.761719 3.460938 17.003906 4.023438 Z M 17.003906 4.023438 "/>
</svg>
